<svg width="26" height="25" viewBox="0 0 26 25" fill="none" xmlns="http://www.w3.org/2000/svg">
<mask id="mask0_111_972" style="mask-type:alpha" maskUnits="userSpaceOnUse" x="0" y="0" width="26" height="25">
<rect width="25.2525" height="25" fill="#D9D9D9"/>
</mask>
<g mask="url(#mask0_111_972)">
<path d="M17.0456 21.3542L19.9918 18.4375V20.8333H21.0439V16.6667H16.8352V17.7083H19.2552L16.3091 20.625L17.0456 21.3542ZM5.26112 21.875C4.68241 21.875 4.18701 21.671 3.7749 21.263C3.36279 20.855 3.15674 20.3646 3.15674 19.7917V5.20833C3.15674 4.63542 3.36279 4.14497 3.7749 3.73698C4.18701 3.32899 4.68241 3.125 5.26112 3.125H19.9918C20.5705 3.125 21.0659 3.32899 21.478 3.73698C21.8901 4.14497 22.0961 4.63542 22.0961 5.20833V12.1875C21.7629 12.0312 21.421 11.8967 21.0702 11.7839C20.7195 11.671 20.36 11.5885 19.9918 11.5365V5.20833H5.26112V19.7917H11.6269C11.6795 20.1736 11.7628 20.5382 11.8768 20.8854C11.9907 21.2326 12.1266 21.5625 12.2845 21.875H5.26112ZM5.26112 19.7917V5.20833V11.5365V11.4583V19.7917ZM7.36549 17.7083H11.6532C11.7058 17.3438 11.7891 16.9878 11.9031 16.6406C12.017 16.2934 12.1442 15.9549 12.2845 15.625H7.36549V17.7083ZM7.36549 13.5417H13.7838C14.345 13.0208 14.9719 12.5868 15.6646 12.2396C16.3573 11.8924 17.0982 11.658 17.8874 11.5365V11.4583H7.36549V13.5417ZM7.36549 9.375H17.8874V7.29167H7.36549V9.375ZM18.9396 23.9583C17.484 23.9583 16.2433 23.4505 15.2175 22.4349C14.1916 21.4193 13.6786 20.191 13.6786 18.75C13.6786 17.309 14.1916 16.0807 15.2175 15.0651C16.2433 14.0495 17.484 13.5417 18.9396 13.5417C20.3951 13.5417 21.6358 14.0495 22.6617 15.0651C23.6876 16.0807 24.2005 17.309 24.2005 18.75C24.2005 20.191 23.6876 21.4193 22.6617 22.4349C21.6358 23.4505 20.3951 23.9583 18.9396 23.9583Z" fill="#1C1B1F"/>
</g>
</svg>
