<svg width="24" height="24" viewBox="0 0 24 24" fill="none" xmlns="http://www.w3.org/2000/svg">
<mask id="mask0_102_331" style="mask-type:alpha" maskUnits="userSpaceOnUse" x="0" y="0" width="24" height="24">
<rect width="24" height="24" rx="12" fill="#D9D9D9"/>
</mask>
<g mask="url(#mask0_102_331)">
<path d="M2 19C1.44772 19 1 18.5523 1 18V6C1 5.44772 1.44772 5 2 5C2.55228 5 3 5.44772 3 6V18C3 18.5523 2.55228 19 2 19ZM5 19C4.44772 19 4 18.5523 4 18V6C4 5.44772 4.44772 5 5 5C5.55228 5 6 5.44772 6 6V18C6 18.5523 5.55228 19 5 19ZM7.5 19C7.22386 19 7 18.7761 7 18.5V5.5C7 5.22386 7.22386 5 7.5 5C7.77614 5 8 5.22386 8 5.5V18.5C8 18.7761 7.77614 19 7.5 19ZM11 19C10.4477 19 10 18.5523 10 18V6C10 5.44772 10.4477 5 11 5C11.5523 5 12 5.44772 12 6V18C12 18.5523 11.5523 19 11 19ZM14.5 19C13.6716 19 13 18.3284 13 17.5V6.5C13 5.67157 13.6716 5 14.5 5C15.3284 5 16 5.67157 16 6.5V17.5C16 18.3284 15.3284 19 14.5 19ZM17.5 19C17.2239 19 17 18.7761 17 18.5V5.5C17 5.22386 17.2239 5 17.5 5C17.7761 5 18 5.22386 18 5.5V18.5C18 18.7761 17.7761 19 17.5 19ZM21.5 19C20.6716 19 20 18.3284 20 17.5V6.5C20 5.67157 20.6716 5 21.5 5C22.3284 5 23 5.67157 23 6.5V17.5C23 18.3284 22.3284 19 21.5 19Z" fill="#97170E"/>
</g>
</svg>
