<svg width="26" height="26" viewBox="0 0 26 26" fill="none" xmlns="http://www.w3.org/2000/svg">
<mask id="mask0_111_686" style="mask-type:alpha" maskUnits="userSpaceOnUse" x="0" y="0" width="26" height="26">
<rect width="25.856" height="25.856" fill="#D9D9D9"/>
</mask>
<g mask="url(#mask0_111_686)">
<path d="M11.8505 9.6958V6.46381H8.61847V4.30914H11.8505V1.07715H14.0051V4.30914H17.2371V6.46381H14.0051V9.6958H11.8505ZM7.54114 23.7011C6.94861 23.7011 6.44136 23.4901 6.01941 23.0682C5.59745 22.6462 5.38647 22.139 5.38647 21.5464C5.38647 20.9539 5.59745 20.4467 6.01941 20.0247C6.44136 19.6028 6.94861 19.3918 7.54114 19.3918C8.13367 19.3918 8.64091 19.6028 9.06287 20.0247C9.48482 20.4467 9.6958 20.9539 9.6958 21.5464C9.6958 22.139 9.48482 22.6462 9.06287 23.0682C8.64091 23.4901 8.13367 23.7011 7.54114 23.7011ZM18.3145 23.7011C17.7219 23.7011 17.2147 23.4901 16.7927 23.0682C16.3708 22.6462 16.1598 22.139 16.1598 21.5464C16.1598 20.9539 16.3708 20.4467 16.7927 20.0247C17.2147 19.6028 17.7219 19.3918 18.3145 19.3918C18.907 19.3918 19.4142 19.6028 19.8362 20.0247C20.2581 20.4467 20.4691 20.9539 20.4691 21.5464C20.4691 22.139 20.2581 22.6462 19.8362 23.0682C19.4142 23.4901 18.907 23.7011 18.3145 23.7011ZM1.07715 4.30914V2.15448H4.60541L9.18407 11.8505H16.7254L20.927 4.30914H23.3779L18.6377 12.8739C18.4401 13.233 18.1753 13.5114 17.8431 13.7089C17.5109 13.9064 17.1473 14.0051 16.7523 14.0051H8.7262L7.54114 16.1598H20.4691V18.3145H7.54114C6.73314 18.3145 6.11816 17.9643 5.69621 17.2641C5.27425 16.5638 5.26079 15.8545 5.65581 15.1363L7.11021 12.4969L3.23181 4.30914H1.07715Z" fill="white"/>
</g>
</svg>
