<svg width="26" height="26" viewBox="0 0 26 26" fill="none" xmlns="http://www.w3.org/2000/svg">
<mask id="mask0_111_689" style="mask-type:alpha" maskUnits="userSpaceOnUse" x="0" y="0" width="26" height="26">
<rect width="25.856" height="25.856" fill="#D9D9D9"/>
</mask>
<g mask="url(#mask0_111_689)">
<path d="M5.49463 17.291C5.09961 16.6087 4.80335 15.9084 4.60584 15.1902C4.40833 14.472 4.30957 13.7358 4.30957 12.9817C4.30957 10.5756 5.1445 8.52869 6.81437 6.84087C8.48423 5.15305 10.5222 4.30914 12.9282 4.30914H13.1168L11.393 2.58541L12.9013 1.07715L17.2106 5.38647L12.9013 9.6958L11.393 8.18754L13.1168 6.46381H12.9282C11.1327 6.46381 9.60645 7.09674 8.34956 8.3626C7.09268 9.62847 6.46423 11.1682 6.46423 12.9817C6.46423 13.4485 6.5181 13.9064 6.62583 14.3553C6.73357 14.8041 6.89517 15.2441 7.11063 15.675L5.49463 17.291ZM12.9552 24.7784L8.64583 20.4691L12.9552 16.1598L14.4634 17.6681L12.7397 19.3918H12.9282C14.7238 19.3918 16.25 18.7589 17.5069 17.493C18.7638 16.2271 19.3922 14.6874 19.3922 12.8739C19.3922 12.4071 19.3383 11.9492 19.2306 11.5003C19.1229 11.0514 18.9613 10.6115 18.7458 10.1806L20.3618 8.5646C20.7568 9.24691 21.0531 9.94718 21.2506 10.6654C21.4481 11.3836 21.5469 12.1198 21.5469 12.8739C21.5469 15.28 20.7119 17.3269 19.0421 19.0147C17.3722 20.7025 15.3343 21.5464 12.9282 21.5464H12.7397L14.4634 23.2702L12.9552 24.7784Z" fill="white"/>
</g>
</svg>
