<svg width="35" height="35" viewBox="0 0 35 35" fill="none" xmlns="http://www.w3.org/2000/svg">
<path d="M12.2312 30.2812C9.4868 29.0146 7.25694 27.1014 5.54167 24.5417C3.82639 21.9819 2.96875 19.0924 2.96875 15.8729C2.96875 15.1868 3.00174 14.5139 3.06771 13.8542C3.13368 13.1944 3.24583 12.5479 3.40417 11.9146L1.58333 12.9833L0 10.2521L7.56042 5.89792L11.9146 13.4187L9.14375 15.0021L7.00625 11.2812C6.71597 11.9937 6.49826 12.7326 6.35313 13.4979C6.20799 14.2632 6.13542 15.0549 6.13542 15.8729C6.13542 18.4326 6.83472 20.7615 8.23333 22.8594C9.63194 24.9573 11.4924 26.5076 13.8146 27.5104L12.2312 30.2812ZM24.3438 11.0833V7.91667H28.6583C27.4444 6.4125 25.9799 5.24479 24.2646 4.41354C22.5493 3.58229 20.7285 3.16667 18.8021 3.16667C17.3507 3.16667 15.9785 3.39097 14.6854 3.83958C13.3924 4.28819 12.2049 4.92153 11.1229 5.73958L9.53958 2.96875C10.859 2.04514 12.2972 1.31944 13.8542 0.791667C15.4111 0.263889 17.0604 0 18.8021 0C20.8868 0 22.8792 0.389236 24.7792 1.16771C26.6792 1.94618 28.3813 3.07431 29.8854 4.55208V2.375H33.0521V11.0833H24.3438ZM23.3146 34.8333L15.7542 30.4792L20.1083 22.9583L22.8396 24.5417L20.5833 28.4208C23.6972 27.9722 26.2899 26.5604 28.3615 24.1854C30.433 21.8104 31.4688 19.0264 31.4688 15.8333C31.4688 15.5431 31.4622 15.2726 31.449 15.0219C31.4358 14.7712 31.4028 14.5139 31.35 14.25H34.5563C34.5826 14.5139 34.6024 14.7712 34.6156 15.0219C34.6288 15.2726 34.6354 15.5431 34.6354 15.8333C34.6354 19.3958 33.5733 22.5823 31.449 25.3927C29.3247 28.2031 26.5604 30.0965 23.1562 31.0729L24.8979 32.1021L23.3146 34.8333Z" fill="white"/>
</svg>
