<svg width="32" height="32" viewBox="0 0 32 32" fill="none" xmlns="http://www.w3.org/2000/svg">
<path d="M4.75 31.6667C3.87917 31.6667 3.13368 31.3566 2.51354 30.7365C1.8934 30.1163 1.58333 29.3708 1.58333 28.5V10.6479C1.10833 10.3576 0.725694 9.9816 0.435417 9.51979C0.145139 9.05799 0 8.52361 0 7.91667V3.16667C0 2.29583 0.310069 1.55035 0.930208 0.930208C1.55035 0.310069 2.29583 0 3.16667 0H28.5C29.3708 0 30.1163 0.310069 30.7365 0.930208C31.3566 1.55035 31.6667 2.29583 31.6667 3.16667V7.91667C31.6667 8.52361 31.5215 9.05799 31.2312 9.51979C30.941 9.9816 30.5583 10.3576 30.0833 10.6479V28.5C30.0833 29.3708 29.7733 30.1163 29.1531 30.7365C28.533 31.3566 27.7875 31.6667 26.9167 31.6667H4.75ZM4.75 11.0833V28.5H26.9167V11.0833H4.75ZM3.16667 7.91667H28.5V3.16667H3.16667V7.91667ZM11.0833 19H20.5833V15.8333H11.0833V19Z" fill="white"/>
</svg>
