<svg width="29" height="33" viewBox="0 0 29 33" fill="none" xmlns="http://www.w3.org/2000/svg">
<path d="M3.16667 32.0832C2.29583 32.0832 1.55035 31.7731 0.930208 31.153C0.31007 30.5328 0 29.7873 0 28.9165V6.74984C0 5.879 0.31007 5.13352 0.930208 4.51338C1.55035 3.89324 2.29583 3.58317 3.16667 3.58317H9.81667C10.1861 2.63317 10.7667 1.86789 11.5583 1.28734C12.35 0.706782 13.2472 0.416504 14.25 0.416504C15.2528 0.416504 16.15 0.706782 16.9417 1.28734C17.7333 1.86789 18.3139 2.63317 18.6833 3.58317H25.3333C26.2042 3.58317 26.9497 3.89324 27.5698 4.51338C28.1899 5.13352 28.5 5.879 28.5 6.74984V28.9165C28.5 29.7873 28.1899 30.5328 27.5698 31.153C26.9497 31.7731 26.2042 32.0832 25.3333 32.0832H3.16667ZM14.25 5.56234C14.5931 5.56234 14.8767 5.45018 15.101 5.22588C15.3253 5.00157 15.4375 4.71789 15.4375 4.37484C15.4375 4.03178 15.3253 3.7481 15.101 3.5238C14.8767 3.29949 14.5931 3.18734 14.25 3.18734C13.9069 3.18734 13.6233 3.29949 13.399 3.5238C13.1747 3.7481 13.0625 4.03178 13.0625 4.37484C13.0625 4.71789 13.1747 5.00157 13.399 5.22588C13.6233 5.45018 13.9069 5.56234 14.25 5.56234ZM3.16667 27.0957C4.59167 25.6971 6.24757 24.5953 8.13438 23.7905C10.0212 22.9856 12.0597 22.5832 14.25 22.5832C16.4403 22.5832 18.4788 22.9856 20.3656 23.7905C22.2524 24.5953 23.9083 25.6971 25.3333 27.0957V6.74984H3.16667V27.0957ZM14.25 19.4165C15.7806 19.4165 17.0868 18.8755 18.1688 17.7936C19.2507 16.7116 19.7917 15.4054 19.7917 13.8748C19.7917 12.3443 19.2507 11.038 18.1688 9.95609C17.0868 8.87414 15.7806 8.33317 14.25 8.33317C12.7194 8.33317 11.4132 8.87414 10.3313 9.95609C9.24931 11.038 8.70833 12.3443 8.70833 13.8748C8.70833 15.4054 9.24931 16.7116 10.3313 17.7936C11.4132 18.8755 12.7194 19.4165 14.25 19.4165ZM6.33333 28.9165H22.1667V28.5207C21.0583 27.5971 19.8313 26.9044 18.4854 26.4425C17.1396 25.9807 15.7278 25.7498 14.25 25.7498C12.7722 25.7498 11.3604 25.9807 10.0146 26.4425C8.66875 26.9044 7.44167 27.5971 6.33333 28.5207V28.9165ZM14.25 16.2498C13.5903 16.2498 13.0295 16.0189 12.5677 15.5571C12.1059 15.0953 11.875 14.5346 11.875 13.8748C11.875 13.2151 12.1059 12.6544 12.5677 12.1925C13.0295 11.7307 13.5903 11.4998 14.25 11.4998C14.9097 11.4998 15.4705 11.7307 15.9323 12.1925C16.3941 12.6544 16.625 13.2151 16.625 13.8748C16.625 14.5346 16.3941 15.0953 15.9323 15.5571C15.4705 16.0189 14.9097 16.2498 14.25 16.2498Z" fill="white"/>
</svg>
