<svg width="50" height="50" viewBox="0 0 50 50" fill="none" xmlns="http://www.w3.org/2000/svg">
<mask id="mask0_169_2989" style="mask-type:alpha" maskUnits="userSpaceOnUse" x="0" y="0" width="50" height="50">
<rect width="50" height="50" fill="#D9D9D9"/>
</mask>
<g mask="url(#mask0_169_2989)">
<path d="M24.9997 41.6665C23.333 40.3471 21.5275 39.3228 19.583 38.5936C17.6386 37.8644 15.6247 37.4998 13.5413 37.4998C12.083 37.4998 10.6507 37.6908 9.24447 38.0728C7.83822 38.4547 6.49273 38.9929 5.20801 39.6873C4.47884 40.0693 3.77572 40.0519 3.09863 39.6353C2.42155 39.2186 2.08301 38.6109 2.08301 37.8123V12.7082C2.08301 12.3262 2.17849 11.9616 2.36947 11.6144C2.56044 11.2672 2.8469 11.0068 3.22884 10.8332C4.82606 9.99984 6.49273 9.37484 8.22884 8.95817C9.96495 8.5415 11.7358 8.33317 13.5413 8.33317C15.5552 8.33317 17.5257 8.59359 19.4528 9.11442C21.3799 9.63525 23.2288 10.4165 24.9997 11.4582V36.6665C26.7705 35.5554 28.6281 34.7221 30.5726 34.1665C32.517 33.6109 34.4788 33.3332 36.458 33.3332C37.708 33.3332 38.932 33.4373 40.1299 33.6457C41.3278 33.854 42.5344 34.1665 43.7497 34.5832V9.58317C44.2705 9.75678 44.7827 9.93907 45.2861 10.13C45.7896 10.321 46.2844 10.5554 46.7705 10.8332C47.1525 11.0068 47.4389 11.2672 47.6299 11.6144C47.8209 11.9616 47.9163 12.3262 47.9163 12.7082V37.8123C47.9163 38.6109 47.5778 39.2186 46.9007 39.6353C46.2236 40.0519 45.5205 40.0693 44.7913 39.6873C43.5066 38.9929 42.1611 38.4547 40.7549 38.0728C39.3486 37.6908 37.9163 37.4998 36.458 37.4998C34.3747 37.4998 32.3608 37.8644 30.4163 38.5936C28.4719 39.3228 26.6663 40.3471 24.9997 41.6665ZM29.1663 31.2498V11.4582L39.583 1.0415V21.8748L29.1663 31.2498ZM20.833 34.6353V14.0103C19.6872 13.5241 18.4979 13.1509 17.2653 12.8905C16.0327 12.63 14.7913 12.4998 13.5413 12.4998C12.2566 12.4998 11.0066 12.6214 9.79134 12.8644C8.57606 13.1075 7.39551 13.4721 6.24967 13.9582V34.6353C7.46495 34.1839 8.67155 33.854 9.86947 33.6457C11.0674 33.4373 12.2913 33.3332 13.5413 33.3332C14.7913 33.3332 16.0153 33.4373 17.2132 33.6457C18.4111 33.854 19.6177 34.1839 20.833 34.6353Z" fill="#5499CB"/>
</g>
</svg>
