<svg width="50" height="50" viewBox="0 0 50 50" fill="none" xmlns="http://www.w3.org/2000/svg">
<mask id="mask0_169_2980" style="mask-type:alpha" maskUnits="userSpaceOnUse" x="0" y="0" width="50" height="50">
<rect width="50" height="50" fill="#D9D9D9"/>
</mask>
<g mask="url(#mask0_169_2980)">
<path d="M2.08301 41.6668V35.8335C2.08301 34.6529 2.38683 33.5679 2.99447 32.5783C3.60211 31.5887 4.4094 30.8335 5.41634 30.3127C7.56912 29.2363 9.75662 28.429 11.9788 27.8908C14.2011 27.3526 16.458 27.0835 18.7497 27.0835C21.0413 27.0835 23.2983 27.3526 25.5205 27.8908C27.7427 28.429 29.9302 29.2363 32.083 30.3127C33.09 30.8335 33.8972 31.5887 34.5049 32.5783C35.1125 33.5679 35.4163 34.6529 35.4163 35.8335V41.6668H2.08301ZM39.583 41.6668V35.4168C39.583 33.8891 39.1577 32.422 38.307 31.0158C37.4563 29.6095 36.2497 28.4029 34.6872 27.396C36.458 27.6043 38.1247 27.9602 39.6872 28.4637C41.2497 28.9672 42.708 29.5835 44.0622 30.3127C45.3122 31.0071 46.267 31.7797 46.9268 32.6304C47.5865 33.4811 47.9163 34.4099 47.9163 35.4168V41.6668H39.583ZM18.7497 25.0002C16.458 25.0002 14.4962 24.1842 12.8643 22.5522C11.2323 20.9203 10.4163 18.9585 10.4163 16.6668C10.4163 14.3752 11.2323 12.4134 12.8643 10.7814C14.4962 9.14947 16.458 8.3335 18.7497 8.3335C21.0413 8.3335 23.0031 9.14947 24.6351 10.7814C26.267 12.4134 27.083 14.3752 27.083 16.6668C27.083 18.9585 26.267 20.9203 24.6351 22.5522C23.0031 24.1842 21.0413 25.0002 18.7497 25.0002ZM39.583 16.6668C39.583 18.9585 38.767 20.9203 37.1351 22.5522C35.5032 24.1842 33.5413 25.0002 31.2497 25.0002C30.8677 25.0002 30.3816 24.9568 29.7913 24.87C29.2011 24.7831 28.715 24.6877 28.333 24.5835C29.2705 23.4724 29.991 22.2397 30.4945 20.8856C30.9979 19.5314 31.2497 18.1252 31.2497 16.6668C31.2497 15.2085 30.9979 13.8022 30.4945 12.4481C29.991 11.0939 29.2705 9.86127 28.333 8.75016C28.8191 8.57655 29.3052 8.4637 29.7913 8.41162C30.2775 8.35954 30.7636 8.3335 31.2497 8.3335C33.5413 8.3335 35.5032 9.14947 37.1351 10.7814C38.767 12.4134 39.583 14.3752 39.583 16.6668ZM6.24967 37.5002H31.2497V35.8335C31.2497 35.4516 31.1542 35.1043 30.9632 34.7918C30.7722 34.4793 30.5205 34.2363 30.208 34.0627C28.333 33.1252 26.4406 32.422 24.5309 31.9533C22.6212 31.4845 20.6941 31.2502 18.7497 31.2502C16.8052 31.2502 14.8781 31.4845 12.9684 31.9533C11.0587 32.422 9.16634 33.1252 7.29134 34.0627C6.97884 34.2363 6.72711 34.4793 6.53613 34.7918C6.34516 35.1043 6.24967 35.4516 6.24967 35.8335V37.5002ZM18.7497 20.8335C19.8955 20.8335 20.8764 20.4255 21.6924 19.6095C22.5084 18.7936 22.9163 17.8127 22.9163 16.6668C22.9163 15.521 22.5084 14.5401 21.6924 13.7241C20.8764 12.9081 19.8955 12.5002 18.7497 12.5002C17.6038 12.5002 16.6229 12.9081 15.807 13.7241C14.991 14.5401 14.583 15.521 14.583 16.6668C14.583 17.8127 14.991 18.7936 15.807 19.6095C16.6229 20.4255 17.6038 20.8335 18.7497 20.8335Z" fill="#54CB58"/>
</g>
</svg>
