<svg width="29" height="29" viewBox="0 0 29 29" fill="none" xmlns="http://www.w3.org/2000/svg">
<path d="M14.5 0C6.496 0 0 6.496 0 14.5C0 22.504 6.496 29 14.5 29C22.504 29 29 22.504 29 14.5C29 6.496 22.504 0 14.5 0ZM7.7575 23.925C9.657 22.562 11.977 21.75 14.5 21.75C17.023 21.75 19.343 22.562 21.2425 23.925C19.343 25.288 17.023 26.1 14.5 26.1C11.977 26.1 9.657 25.288 7.7575 23.925ZM23.403 21.924C20.9525 20.01 17.864 18.85 14.5 18.85C11.136 18.85 8.0475 20.01 5.597 21.924C3.915 19.9085 2.9 17.3275 2.9 14.5C2.9 8.091 8.091 2.9 14.5 2.9C20.909 2.9 26.1 8.091 26.1 14.5C26.1 17.3275 25.085 19.9085 23.403 21.924Z" fill="#EDDF13"/>
<path d="M14.4998 5.79993C11.7013 5.79993 9.4248 8.07643 9.4248 10.8749C9.4248 13.6734 11.7013 15.9499 14.4998 15.9499C17.2983 15.9499 19.5748 13.6734 19.5748 10.8749C19.5748 8.07643 17.2983 5.79993 14.4998 5.79993ZM14.4998 13.0499C13.2963 13.0499 12.3248 12.0784 12.3248 10.8749C12.3248 9.67143 13.2963 8.69993 14.4998 8.69993C15.7033 8.69993 16.6748 9.67143 16.6748 10.8749C16.6748 12.0784 15.7033 13.0499 14.4998 13.0499Z" fill="#EDDF13"/>
</svg>
