<svg width="26" height="26" viewBox="0 0 26 26" fill="none" xmlns="http://www.w3.org/2000/svg">
<mask id="mask0_111_683" style="mask-type:alpha" maskUnits="userSpaceOnUse" x="0" y="0" width="26" height="26">
<rect width="25.856" height="25.856" fill="#D9D9D9"/>
</mask>
<g mask="url(#mask0_111_683)">
<path d="M12.9283 10.7729L11.42 9.26469L13.1168 7.54095H8.61896V5.38629H13.1168L11.3931 3.66256L12.9283 2.1543L17.2376 6.46362L12.9283 10.7729ZM7.54163 23.7009C6.94909 23.7009 6.44185 23.49 6.0199 23.068C5.59794 22.646 5.38696 22.1388 5.38696 21.5463C5.38696 20.9537 5.59794 20.4465 6.0199 20.0245C6.44185 19.6026 6.94909 19.3916 7.54163 19.3916C8.13416 19.3916 8.6414 19.6026 9.06336 20.0245C9.48531 20.4465 9.69629 20.9537 9.69629 21.5463C9.69629 22.1388 9.48531 22.646 9.06336 23.068C8.6414 23.49 8.13416 23.7009 7.54163 23.7009ZM18.3149 23.7009C17.7224 23.7009 17.2152 23.49 16.7932 23.068C16.3713 22.646 16.1603 22.1388 16.1603 21.5463C16.1603 20.9537 16.3713 20.4465 16.7932 20.0245C17.2152 19.6026 17.7224 19.3916 18.3149 19.3916C18.9075 19.3916 19.4147 19.6026 19.8367 20.0245C20.2586 20.4465 20.4696 20.9537 20.4696 21.5463C20.4696 22.1388 20.2586 22.646 19.8367 23.068C19.4147 23.49 18.9075 23.7009 18.3149 23.7009ZM1.07764 4.30896V2.1543H4.6059L9.18456 11.8503H16.7259L20.9275 4.30896H23.3784L18.6381 12.8737C18.4406 13.2329 18.1758 13.5112 17.8436 13.7087C17.5114 13.9062 17.1478 14.0049 16.7528 14.0049H8.72669L7.54163 16.1596H20.4696V18.3143H7.54163C6.73363 18.3143 6.11865 17.9641 5.6967 17.2639C5.27474 16.5636 5.26127 15.8544 5.6563 15.1361L7.11069 12.4967L3.2323 4.30896H1.07764Z" fill="white"/>
</g>
</svg>
