<svg width="16" height="16" viewBox="0 0 16 16" fill="none" xmlns="http://www.w3.org/2000/svg">
<mask id="mask0_111_259" style="mask-type:alpha" maskUnits="userSpaceOnUse" x="0" y="0" width="16" height="16">
<rect width="16" height="16" fill="#D9D9D9"/>
</mask>
<g mask="url(#mask0_111_259)">
<path d="M1.3335 16.0002V13.3335H14.6668V16.0002H1.3335ZM4.00016 10.6668H4.9335L10.1335 5.4835L9.1835 4.5335L4.00016 9.7335V10.6668ZM2.66683 12.0002V9.16683L10.1335 1.71683C10.2557 1.59461 10.3974 1.50016 10.5585 1.4335C10.7196 1.36683 10.8891 1.3335 11.0668 1.3335C11.2446 1.3335 11.4168 1.36683 11.5835 1.4335C11.7502 1.50016 11.9002 1.60016 12.0335 1.7335L12.9502 2.66683C13.0835 2.78905 13.1807 2.9335 13.2418 3.10016C13.3029 3.26683 13.3335 3.43905 13.3335 3.61683C13.3335 3.7835 13.3029 3.94739 13.2418 4.1085C13.1807 4.26961 13.0835 4.41683 12.9502 4.55016L5.50016 12.0002H2.66683Z" fill="white"/>
</g>
</svg>
