<svg width="28" height="28" viewBox="0 0 28 28" fill="none" xmlns="http://www.w3.org/2000/svg">
<mask id="mask0_169_2722" style="mask-type:alpha" maskUnits="userSpaceOnUse" x="0" y="0" width="28" height="28">
<rect width="28" height="28" fill="#D9D9D9"/>
</mask>
<g mask="url(#mask0_169_2722)">
<path d="M9.33317 13.9997V11.6663H18.6665V13.9997H9.33317ZM9.33317 9.33301V6.99967H18.6665V9.33301H9.33317ZM6.99984 16.333H15.7498C16.3137 16.333 16.8387 16.4545 17.3248 16.6976C17.8109 16.9406 18.2193 17.2858 18.5498 17.733L20.9998 20.9413V4.66634H6.99984V16.333ZM6.99984 23.333H19.8915L16.7123 19.1622C16.5957 19.0066 16.4547 18.8851 16.2894 18.7976C16.1241 18.7101 15.9443 18.6663 15.7498 18.6663H6.99984V23.333ZM20.9998 25.6663H6.99984C6.35817 25.6663 5.80887 25.4379 5.35192 24.9809C4.89498 24.524 4.6665 23.9747 4.6665 23.333V4.66634C4.6665 4.02467 4.89498 3.47537 5.35192 3.01842C5.80887 2.56148 6.35817 2.33301 6.99984 2.33301H20.9998C21.6415 2.33301 22.1908 2.56148 22.6478 3.01842C23.1047 3.47537 23.3332 4.02467 23.3332 4.66634V23.333C23.3332 23.9747 23.1047 24.524 22.6478 24.9809C22.1908 25.4379 21.6415 25.6663 20.9998 25.6663Z" fill="#1F1F1F"/>
</g>
</svg>
