<svg width="26" height="32" viewBox="0 0 26 32" fill="none" xmlns="http://www.w3.org/2000/svg">
<path d="M3.16667 31.6667C2.29583 31.6667 1.55035 31.3566 0.930208 30.7365C0.31007 30.1163 0 29.3708 0 28.5V3.16667C0 2.29583 0.31007 1.55035 0.930208 0.930208C1.55035 0.310069 2.29583 0 3.16667 0H22.1667C23.0375 0 23.783 0.310069 24.4031 0.930208C25.0233 1.55035 25.3333 2.29583 25.3333 3.16667V28.5C25.3333 29.3708 25.0233 30.1163 24.4031 30.7365C23.783 31.3566 23.0375 31.6667 22.1667 31.6667H3.16667ZM3.16667 28.5H22.1667V3.16667H19V14.25L15.0417 11.875L11.0833 14.25V3.16667H3.16667V28.5Z" fill="white"/>
</svg>
