<svg width="32" height="29" viewBox="0 0 32 29" fill="none" xmlns="http://www.w3.org/2000/svg">
<path d="M9.5 19H22.1667V18.1292C22.1667 16.9417 21.5861 15.9983 20.425 15.299C19.2639 14.5997 17.7333 14.25 15.8333 14.25C13.9333 14.25 12.4028 14.5997 11.2417 15.299C10.0806 15.9983 9.5 16.9417 9.5 18.1292V19ZM15.8333 12.6667C16.7042 12.6667 17.4497 12.3566 18.0698 11.7365C18.6899 11.1163 19 10.3708 19 9.5C19 8.62917 18.6899 7.88368 18.0698 7.26354C17.4497 6.6434 16.7042 6.33333 15.8333 6.33333C14.9625 6.33333 14.217 6.6434 13.5969 7.26354C12.9767 7.88368 12.6667 8.62917 12.6667 9.5C12.6667 10.3708 12.9767 11.1163 13.5969 11.7365C14.217 12.3566 14.9625 12.6667 15.8333 12.6667ZM9.5 28.5V25.3333H3.16667C2.29583 25.3333 1.55035 25.0233 0.930208 24.4031C0.310069 23.783 0 23.0375 0 22.1667V3.16667C0 2.29583 0.310069 1.55035 0.930208 0.930208C1.55035 0.31007 2.29583 0 3.16667 0H28.5C29.3708 0 30.1163 0.31007 30.7365 0.930208C31.3566 1.55035 31.6667 2.29583 31.6667 3.16667V22.1667C31.6667 23.0375 31.3566 23.783 30.7365 24.4031C30.1163 25.0233 29.3708 25.3333 28.5 25.3333H22.1667V28.5H9.5ZM3.16667 22.1667H28.5V3.16667H3.16667V22.1667Z" fill="white"/>
</svg>
