<svg width="32" height="33" viewBox="0 0 32 33" fill="none" xmlns="http://www.w3.org/2000/svg">
<path d="M17.4167 0.75415C21.1903 1.12359 24.4031 2.63436 27.0552 5.28644C29.7073 7.93853 31.2181 11.1514 31.5875 14.925H20.2667C20.0292 14.2389 19.6663 13.6385 19.1781 13.1239C18.6899 12.6094 18.1028 12.2333 17.4167 11.9958V0.75415ZM20.5833 4.79165V10.175C20.8736 10.4125 21.1507 10.6632 21.4146 10.9271C21.6785 11.191 21.9292 11.468 22.1667 11.7583H27.55C26.9167 10.175 25.9931 8.77637 24.7792 7.56248C23.5653 6.3486 22.1667 5.42498 20.5833 4.79165ZM14.25 0.75415V11.9958C13.3 12.3389 12.5347 12.926 11.9542 13.7573C11.3736 14.5885 11.0833 15.5055 11.0833 16.5083C11.0833 17.5111 11.3736 18.4149 11.9542 19.2198C12.5347 20.0246 13.3 20.5986 14.25 20.9417V32.2625C10.1861 31.8666 6.79514 30.1646 4.07708 27.1562C1.35903 24.1479 0 20.5986 0 16.5083C0 12.418 1.35903 8.86873 4.07708 5.8604C6.79514 2.85207 10.1861 1.14998 14.25 0.75415ZM11.0833 4.79165C8.68194 5.71526 6.76215 7.24582 5.32396 9.38332C3.88576 11.5208 3.16667 13.8958 3.16667 16.5083C3.16667 19.1208 3.88576 21.4958 5.32396 23.6333C6.76215 25.7708 8.68194 27.3278 11.0833 28.3041V22.8417C10.0806 22.0764 9.30208 21.1462 8.74792 20.051C8.19375 18.9559 7.91667 17.775 7.91667 16.5083C7.91667 15.2417 8.19375 14.0607 8.74792 12.9656C9.30208 11.8705 10.0806 10.9403 11.0833 10.175V4.79165ZM20.2667 18.0917H31.5875C31.2181 21.8653 29.7073 25.0781 27.0552 27.7302C24.4031 30.3823 21.1903 31.893 17.4167 32.2625V20.9417C18.1028 20.7042 18.6899 20.3413 19.1781 19.8531C19.6663 19.3649 20.0292 18.7778 20.2667 18.0917ZM22.1667 21.2583C21.9556 21.5486 21.7115 21.8257 21.4344 22.0896C21.1573 22.3535 20.8736 22.6042 20.5833 22.8417V28.225C22.1667 27.5917 23.5653 26.668 24.7792 25.4542C25.9931 24.2403 26.9167 22.8417 27.55 21.2583H22.1667Z" fill="white"/>
</svg>
