<svg width="26" height="27" viewBox="0 0 26 27" fill="none" xmlns="http://www.w3.org/2000/svg">
<mask id="mask0_169_706" style="mask-type:alpha" maskUnits="userSpaceOnUse" x="0" y="0" width="26" height="27">
<rect y="0.744141" width="25.856" height="25.856" fill="#D9D9D9"/>
</mask>
<g mask="url(#mask0_169_706)">
<path d="M4.49793 23.3682C4.12086 23.458 3.79317 23.3637 3.51486 23.0854C3.23655 22.8071 3.14229 22.4794 3.23206 22.1023L4.3094 16.9581L9.64219 22.2909L4.49793 23.3682ZM9.64219 22.2909L4.3094 16.9581L16.6448 4.62264C17.0578 4.20966 17.5696 4.00317 18.18 4.00317C18.7905 4.00317 19.3023 4.20966 19.7152 4.62264L21.9776 6.88504C22.3906 7.29801 22.5971 7.80975 22.5971 8.42023C22.5971 9.03072 22.3906 9.54245 21.9776 9.95543L9.64219 22.2909ZM18.18 6.1309L7.02966 17.2813L9.31899 19.5706L20.4694 8.42023L18.18 6.1309Z" fill="white"/>
</g>
</svg>
