<svg width="26" height="27" viewBox="0 0 26 27" fill="none" xmlns="http://www.w3.org/2000/svg">
<mask id="mask0_169_718" style="mask-type:alpha" maskUnits="userSpaceOnUse" x="0" y="0" width="26" height="27">
<rect y="0.744141" width="25.856" height="25.856" fill="#D9D9D9"/>
</mask>
<g mask="url(#mask0_169_718)">
<path d="M1.07715 23.368V17.9814H3.23181V21.2134H6.46381V23.368H1.07715ZM19.3918 23.368V21.2134H22.6238V17.9814H24.7784V23.368H19.3918ZM4.30914 20.136V7.20807H6.46381V20.136H4.30914ZM7.54114 20.136V7.20807H8.61847V20.136H7.54114ZM10.7731 20.136V7.20807H12.9278V20.136H10.7731ZM14.0051 20.136V7.20807H17.2371V20.136H14.0051ZM18.3145 20.136V7.20807H19.3918V20.136H18.3145ZM20.4691 20.136V7.20807H21.5464V20.136H20.4691ZM1.07715 9.36273V3.97607H6.46381V6.13074H3.23181V9.36273H1.07715ZM22.6238 9.36273V6.13074H19.3918V3.97607H24.7784V9.36273H22.6238Z" fill="white"/>
</g>
</svg>
